#!OML:ASF F:\VICON\USERDATA\INSTALL\rory3\rory3.ASF
:FULLY-SPECIFIED
:DEGREES
704
root 4.29503 15.5971 2.15628 24.1121 -6.25074 1.37586
lowerback 12.6643 -2.60698 3.52562
upperback 3.38632 -2.99 -0.0750145
thorax -3.71693 -1.49439 -1.5934
lowerneck -13.9779 -0.293338 -2.64612
upperneck 37.5404 1.26792 -2.73182
head 15.5896 -0.265083 -0.492061
rclavicle -4.80065e-014 -1.78906e-015
rhumerus -61.8251 63.7415 -61.9524
rradius 68.89
rwrist -18.665
rhand -7.49898 -38.7729
rfingers 7.12502
rthumb 18.3909 -67.9235
lclavicle -4.80065e-014 -1.78906e-015
lhumerus -47.6384 -71.7218 43.7854
lradius 64.8791
lwrist 43.7621
lhand -14.2991 -27.03
lfingers 7.12502
lthumb 11.8407 2.61527
rfemur -83.595 -7.26723 23.2589
rtibia 44.8802
rfoot 37.623 -1.11648
rtoes 3.92082
lfemur -58.9679 -4.99717 -29.5798
ltibia 62.1755
lfoot -25.4762 8.63056
ltoes 9.51663
705
root 4.29536 15.5985 2.15673 24.0867 -6.26136 1.37208
lowerback 12.7265 -2.58154 3.5512
upperback 3.38904 -2.95178 -0.0986848
thorax -3.74831 -1.47607 -1.63626
lowerneck -13.978 -0.288004 -2.52501
upperneck 37.5714 1.29298 -2.8702
head 15.6075 -0.256442 -0.568976
rclavicle -1.33186e-014 -1.963e-014
rhumerus -62.061 63.216 -62.272
rradius 68.7907
rwrist -18.3482
rhand -7.38461 -38.7306
rfingers 7.12502
rthumb 18.5009 -67.8708
lclavicle -1.33186e-014 -1.963e-014
lhumerus -47.4267 -71.7781 43.6161
lradius 64.8735
lwrist 43.887
lhand -14.4697 -27.0461
lfingers 7.12502
lthumb 11.6762 2.60852
rfemur -83.5968 -7.24604 23.2493
rtibia 44.9791
rfoot 37.5713 -1.08793
rtoes 3.98646
lfemur -58.9424 -4.93029 -29.5993
ltibia 62.1656
lfoot -25.4717 8.63542
ltoes 9.01758
706
root 4.29461 15.5988 2.15714 24.1009 -6.25533 1.41317
lowerback 12.7112 -2.58369 3.49746
upperback 3.37346 -2.9619 -0.100883
thorax -3.75445 -1.48102 -1.60696
lowerneck -14.0319 -0.285006 -2.499
upperneck 37.7397 1.32481 -2.94415
head 15.7069 -0.253174 -0.603168
rclavicle -8.19987e-015 -1.16786e-014
rhumerus -62.188 63.4531 -62.3702
rradius 68.8763
rwrist -18.4812
rhand -6.59711 -38.9961
rfingers 7.12502
rthumb 19.2583 -68.0626
lclavicle -8.19987e-015 -1.16786e-014
lhumerus -47.5497 -71.8049 43.7713
lradius 64.8574
lwrist 43.9384
lhand -14.5004 -27.0778
lfingers 7.12502
lthumb 11.6466 2.57853
rfemur -83.6699 -7.25201 23.1869
rtibia 45.0889
rfoot 37.5252 -0.859218
rtoes 3.7254
lfemur -58.9524 -4.88422 -29.6671
ltibia 62.1745
lfoot -25.5074 8.39732
ltoes 10.0953
707
root 4.29187 15.592 2.15827 24.1567 -6.20346 1.45957
lowerback 12.6557 -2.58508 3.45193
upperback 3.37263 -2.97247 -0.11759
thorax -3.72433 -1.48563 -1.59934
lowerneck -14.1684 -0.309328 -2.55381
upperneck 37.8917 1.25748 -2.7889
head 15.8138 -0.271587 -0.541302
rclavicle 4.17448e-014 -9.0944e-015
rhumerus -62.2107 63.1277 -62.5188
rradius 68.7661
rwrist -18.0579
rhand -5.94646 -39.1768
rfingers 7.12502
rthumb 19.8838 -68.1796
lclavicle 4.17448e-014 -9.0944e-015
lhumerus -47.5401 -71.8425 43.787
lradius 64.8321
lwrist 43.9392
lhand -14.9666 -27.2134
lfingers 7.12502
lthumb 11.197 2.46784
rfemur -83.8134 -7.27275 23.1088
rtibia 45.2018
rfoot 37.4859 -0.674707
rtoes 3.67488
lfemur -59.0325 -4.86149 -29.73
ltibia 62.2074
lfoot -25.52 8.17819
ltoes 11.1109
708
root 4.29294 15.5887 2.16338 24.145 -6.19263 1.48757
lowerback 12.6308 -2.55939 3.47605
upperback 3.40166 -2.93944 -0.168409
thorax -3.68227 -1.46871 -1.673
lowerneck -14.2986 -0.358718 -2.4706
upperneck 37.9918 1.17755 -2.81355
head 15.8961 -0.298308 -0.582642
rclavicle -1.09332e-014 -1.00883e-014
rhumerus -62.3198 63.1952 -62.585
rradius 68.868
rwrist -18.1249
rhand -6.17565 -39.0242
rfingers 7.12502
rthumb 19.6635 -68.0497
lclavicle -1.09332e-014 -1.00883e-014
lhumerus -47.3541 -71.9359 43.6222
lradius 64.8297
lwrist 43.9061
lhand -15.5138 -27.149
lfingers 7.12502
lthumb 10.6691 2.56013
rfemur -83.8762 -7.33888 23.1224
rtibia 45.2862
rfoot 37.5413 -0.215023
rtoes 3.24272
lfemur -58.9854 -4.79651 -29.8097
ltibia 62.2261
lfoot -25.5843 8.01126
ltoes 11.1801
709
root 4.2954 15.5929 2.16754 24.0763 -6.22836 1.50658
lowerback 12.6653 -2.49043 3.52983
upperback 3.44805 -2.84462 -0.240506
thorax -3.6532 -1.42144 -1.79361
lowerneck -14.3219 -0.44327 -2.3852
upperneck 37.9868 1.05254 -2.8758
head 15.8989 -0.344956 -0.645924
rclavicle -6.02815e-014 7.05686e-015
rhumerus -62.5414 63.2681 -62.6912
rradius 68.9776
rwrist -18.2125
rhand -6.5889 -38.6045
rfingers 7.12502
rthumb 19.2662 -67.6701
lclavicle -6.02815e-014 7.05686e-015
lhumerus -46.7518 -71.9528 43.1024
lradius 64.7605
lwrist 43.7178
lhand -15.3343 -27.0351
lfingers 7.12502
lthumb 10.8423 2.66503
rfemur -83.8349 -7.37943 23.1397
rtibia 45.3217
rfoot 37.5897 0.154288
rtoes 2.51901
lfemur -58.8456 -4.68671 -29.899
ltibia 62.2016
lfoot -25.6208 7.81702
ltoes 12.1748
710
root 4.29441 15.5973 2.16866 24.0483 -6.22801 1.43958
lowerback 12.7066 -2.43639 3.61016
upperback 3.4886 -2.76375 -0.270153
thorax -3.63339 -1.38127 -1.88223
lowerneck -14.2837 -0.495809 -2.36317
upperneck 37.8637 0.938935 -2.80886
head 15.8246 -0.376405 -0.637625
rclavicle -1.73937e-014 -1.54555e-014
rhumerus -62.4899 63.3453 -62.7073
rradius 68.9552
rwrist -18.1887
rhand -6.13214 -38.5898
rfingers 7.12502
rthumb 19.7053 -67.611
lclavicle -1.73937e-014 -1.54555e-014
lhumerus -46.1377 -71.9171 42.554
lradius 64.7234
lwrist 43.6556
lhand -15.0802 -27.07
lfingers 7.12502
lthumb 11.0874 2.61715
rfemur -83.7653 -7.31915 23.1637
rtibia 45.29
rfoot 37.6702 -0.41444
rtoes 3.49349
lfemur -58.814 -4.59132 -29.8453
ltibia 62.1531
lfoot -25.5367 7.90314
ltoes 12.2997
711
root 4.29348 15.6018 2.16905 24.0332 -6.23147 1.3921
lowerback 12.7103 -2.39431 3.63786
upperback 3.54937 -2.70652 -0.285496
thorax -3.57011 -1.35156 -1.92436
lowerneck -14.3178 -0.515037 -2.26309
upperneck 37.7243 0.898479 -2.86045
head 15.762 -0.383181 -0.681926
rclavicle -1.46604e-014 -2.32578e-014
rhumerus -62.5278 63.3391 -62.6336
rradius 69.1195
rwrist -18.1397
rhand -5.65902 -38.8471
rfingers 7.12502
rthumb 20.1601 -67.821
lclavicle -1.46604e-014 -2.32578e-014
lhumerus -45.6038 -72.1653 42.0245
lradius 64.8385
lwrist 43.9533
lhand -15.3692 -27.1978
lfingers 7.12502
lthumb 10.8086 2.50406
rfemur -83.7135 -7.27929 23.1946
rtibia 45.218
rfoot 37.909 0.217683
rtoes 2.74742
lfemur -58.8094 -4.54905 -29.788
ltibia 62.0964
lfoot -25.4587 8.01795
ltoes 11.1564
712
root 4.29242 15.6066 2.16602 24.0171 -6.24476 1.45653
lowerback 12.7841 -2.30286 3.60347
upperback 3.62791 -2.5922 -0.362089
thorax -3.52295 -1.29337 -2.00272
lowerneck -14.5152 -0.602491 -2.14766
upperneck 37.622 0.728107 -2.82377
head 15.7553 -0.430311 -0.714628
rclavicle -8.54774e-015 -5.61567e-015
rhumerus -62.3525 62.8271 -62.6174
rradius 68.9475
rwrist -17.9993
rhand -5.5929 -39.0581
rfingers 7.12502
rthumb 20.2237 -68.0253
lclavicle -8.54774e-015 -5.61567e-015
lhumerus -44.3344 -72.4606 40.8383
lradius 64.8829
lwrist 44.1381
lhand -15.4855 -27.3029
lfingers 7.12502
lthumb 10.6964 2.40484
rfemur -83.7111 -7.26484 23.1019
rtibia 45.1482
rfoot 37.9112 -0.0411147
rtoes 3.41856
lfemur -58.7857 -4.5316 -29.8562
ltibia 62.0505
lfoot -25.3995 7.72319
ltoes 10.2167
